<?xml version="1.0" encoding="UTF-8" standalone="no"?>
<svg width="20px" height="18px" viewBox="0 0 20 18" version="1.1" xmlns="http://www.w3.org/2000/svg" xmlns:xlink="http://www.w3.org/1999/xlink">
    <!-- Generator: sketchtool 3.6.1 (26313) - http://www.bohemiancoding.com/sketch -->
    <title>FD6A3594-DC39-4DF4-88AB-7152D20B09EE</title>
    <desc>Created with sketchtool.</desc>
    <defs></defs>
    <g id="wireframes" stroke="none" stroke-width="1" fill="none" fill-rule="evenodd">
        <g id="nurses_registration1.1" transform="translate(-1190.000000, -991.000000)" fill="#0987B7">
            <g id="Group-2-Copy-3" transform="translate(77.000000, 989.000000)">
                <g id="password" transform="translate(793.000000, 1.000000)">
                    <g id="icon_upload" transform="translate(320.000000, 1.000000)">
                        <path d="M1.17647059,0 C0.531384392,0 0,0.538330593 0,1.19184929 L0,13.9049084 C0,14.5584271 0.531384392,15.0967577 1.17647059,15.0967577 L8.23529412,15.0967577 C8.37671997,15.0987839 8.5082672,15.0235085 8.57956381,14.8997558 C8.65086042,14.776003 8.65086042,14.6229461 8.57956381,14.4991934 C8.5082672,14.3754407 8.37671997,14.3001652 8.23529412,14.3021915 L1.17647059,14.3021915 C0.954890118,14.3021915 0.784313725,14.1293852 0.784313725,13.9049084 L0.784313725,1.19184929 C0.784313725,0.967372341 0.954890118,0.794566192 1.17647059,0.794566192 L5.56372549,0.794566192 C5.66748667,0.794566192 5.75972745,0.831734013 5.83333333,0.906302063 L6.77696078,1.87467961 C6.85237234,1.94863214 6.95389619,1.98887817 7.05882353,1.98641548 L12.9411765,1.98641548 C13.0826023,1.98844174 13.2141496,1.91316629 13.2854462,1.78941358 C13.3567428,1.66566087 13.3567428,1.5126039 13.2854462,1.38885119 C13.2141496,1.26509848 13.0826023,1.18982303 12.9411765,1.19184929 L7.23039216,1.19184929 L6.38480392,0.347622709 C6.16429216,0.124228557 5.87565059,0 5.56372549,0 L1.17647059,0 L1.17647059,0 Z M18.3946078,6.74139754 C18.3780215,6.74446417 18.3616477,6.74861114 18.3455882,6.75381264 C18.1629888,6.79524063 18.0347113,6.96158215 18.0392157,7.15109573 L18.0392157,13.9049084 C18.0392157,14.1293852 17.8686392,14.3021915 17.6470588,14.3021915 L11.372549,14.3021915 C11.2311232,14.3001652 11.0995759,14.3754407 11.0282793,14.4991934 C10.9569827,14.6229461 10.9569827,14.776003 11.0282793,14.8997558 C11.0995759,15.0235085 11.2311232,15.0987839 11.372549,15.0967577 L17.6470588,15.0967577 C18.2921451,15.0967577 18.8235294,14.5584271 18.8235294,13.9049084 L18.8235294,7.15109573 C18.8275481,7.03681098 18.782765,6.92631344 18.7006335,6.8478629 C18.618502,6.76941237 18.5069868,6.73061656 18.3946078,6.74139754 L18.3946078,6.74139754 Z M9.76715686,7.13868064 C9.75057056,7.14174726 9.73419672,7.14589423 9.71813725,7.15109573 C9.7056879,7.15461782 9.69341802,7.15876124 9.68137255,7.16351083 C9.66892319,7.16703292 9.65665331,7.17117634 9.64460784,7.17592593 C9.61832955,7.18962017 9.5936632,7.20627936 9.57107843,7.22558631 C9.53283574,7.25253214 9.49963735,7.28616449 9.47303922,7.32490709 L6.77696078,10.0438133 C6.67625028,10.1458273 6.63691444,10.2945245 6.6737718,10.4338879 C6.71062916,10.5732513 6.81807971,10.6821064 6.95564487,10.7194456 C7.09321003,10.7567847 7.23998854,10.7169347 7.34068627,10.6149077 L9.41176471,8.51675638 L9.41176471,16.68589 C9.40976459,16.8291646 9.48406874,16.9624314 9.60622465,17.03466 C9.72838055,17.1068886 9.87946259,17.1068886 10.0016185,17.03466 C10.1237744,16.9624314 10.1980785,16.8291646 10.1960784,16.68589 L10.1960784,8.51675638 L12.2671569,10.6149077 C12.3678546,10.7169347 12.5146331,10.7567847 12.6521983,10.7194456 C12.7897634,10.6821064 12.897214,10.5732513 12.9340713,10.4338879 C12.9709287,10.2945245 12.9315929,10.1458273 12.8308824,10.0438133 L10.1348039,7.32490709 C10.0900337,7.25734891 10.025868,7.2053453 9.95098039,7.17592593 C9.92733997,7.16520997 9.90270993,7.15689264 9.87745098,7.15109573 C9.84145295,7.14168233 9.80431658,7.13750213 9.76715686,7.13868064 L9.76715686,7.13868064 Z" id="Shape"></path>
                        <path d="M19.2156863,0.397283096 C18.9991039,0.397283096 18.8235294,0.575152817 18.8235294,0.794566192 C18.8235294,1.01397957 18.9991039,1.19184929 19.2156863,1.19184929 C19.4322686,1.19184929 19.6078431,1.01397957 19.6078431,0.794566192 C19.6078431,0.575152817 19.4322686,0.397283096 19.2156863,0.397283096 L19.2156863,0.397283096 Z" id="Path"></path>
                        <path d="M17.6102941,0.384867999 C17.5937078,0.387934629 17.577334,0.392081598 17.5612745,0.397283096 C17.3786751,0.438711087 17.2503976,0.605052608 17.254902,0.794566192 C17.254902,1.88690242 18.1374447,2.78098167 19.2156863,2.78098167 C19.3571121,2.78300793 19.4886594,2.70773249 19.559956,2.58397977 C19.6312526,2.46022706 19.6312526,2.30717009 19.559956,2.18341738 C19.4886594,2.05966467 19.3571121,1.98438922 19.2156863,1.98641548 C18.5613788,1.98641548 18.0392157,1.45742664 18.0392157,0.794566192 C18.0432343,0.680281444 17.9984513,0.569783903 17.9163198,0.491333365 C17.8341883,0.412882827 17.722673,0.374087023 17.6102941,0.384867999 L17.6102941,0.384867999 Z" id="Path" stroke="#0987B7" stroke-width="0.899999976"></path>
                        <path d="M16.0416667,0.384867999 C16.0250804,0.387934629 16.0087065,0.392081598 15.9926471,0.397283096 C15.8100476,0.438711087 15.6817702,0.605052608 15.6862745,0.794566192 C15.6862745,2.76450078 17.2711702,4.37011406 19.2156863,4.37011406 C19.3571121,4.37214032 19.4886594,4.29686487 19.559956,4.17311216 C19.6312526,4.04935945 19.6312526,3.89630248 19.559956,3.77254977 C19.4886594,3.64879705 19.3571121,3.57352161 19.2156863,3.57554787 C17.6951043,3.57554787 16.4705882,2.33502504 16.4705882,0.794566192 C16.4746069,0.680281444 16.4298238,0.569783903 16.3476923,0.491333365 C16.2655608,0.412882827 16.1540456,0.374087023 16.0416667,0.384867999 L16.0416667,0.384867999 Z" id="Path" stroke="#0987B7" stroke-width="0.899999976"></path>
                        <path d="M14.4730392,0.384867999 C14.4564529,0.387934629 14.4400791,0.392081598 14.4240196,0.397283096 C14.2414202,0.438711087 14.1131427,0.605052608 14.1176471,0.794566192 C14.1176471,3.64209914 16.4048957,5.95924644 19.2156863,5.95924644 C19.3571121,5.9612727 19.4886594,5.88599726 19.559956,5.76224454 C19.6312526,5.63849183 19.6312526,5.48543486 19.559956,5.36168215 C19.4886594,5.23792944 19.3571121,5.16265399 19.2156863,5.16468025 C16.8288298,5.16468025 14.9019608,3.2126234 14.9019608,0.794566192 C14.9059794,0.680281444 14.8611964,0.569783903 14.7790649,0.491333365 C14.6969334,0.412882827 14.5854181,0.374087023 14.4730392,0.384867999 L14.4730392,0.384867999 Z" id="Path" stroke="#0987B7" stroke-width="0.899999976"></path>
                    </g>
                </g>
            </g>
        </g>
    </g>
</svg>